<?xml version='1.0' encoding='utf-8'?>
<svg xmlns="http://www.w3.org/2000/svg" viewBox="0 0 43.8 43.799" width="43.8" height="43.799" role="img"><title>Global Secondary Index</title><desc>Converted from draw.io 22.1.2 mxgraph.aws4.global_secondary_index; see provenance.json and source/stencils/LICENSE.</desc><path d="M2 41.799 L2 35.961 L6.967 35.961 L6.967 41.799 Z M0 43.799 L8.967 43.799 L8.967 33.961 L0 33.961 Z M12.451 41.799 L12.451 35.961 L17.417 35.961 L17.417 41.799 Z M10.45 43.799 L19.417 43.799 L19.417 33.961 L10.45 33.961 Z M22.9 41.799 L22.9 35.961 L41.799 35.961 L41.799 41.799 Z M20.901 43.799 L43.8 43.799 L43.8 33.961 L20.901 33.961 Z M2 30.478 L2 24.641 L6.967 24.641 L6.967 30.478 Z M0 32.478 L8.967 32.478 L8.967 22.641 L0 22.641 Z M12.451 30.478 L12.451 24.641 L17.417 24.641 L17.417 30.478 Z M10.45 32.478 L19.417 32.478 L19.417 22.641 L10.45 22.641 Z M22.9 30.478 L22.9 24.641 L41.799 24.641 L41.799 30.478 Z M20.901 32.478 L43.8 32.478 L43.8 22.641 L20.901 22.641 Z M2 19.157 L2 13.32 L6.967 13.32 L6.967 19.157 Z M0 21.158 L8.967 21.158 L8.967 11.32 L0 11.32 Z M12.451 19.157 L12.451 13.32 L17.417 13.32 L17.417 19.157 Z M10.45 21.158 L19.417 21.158 L19.417 11.32 L10.45 11.32 Z M22.9 19.157 L22.9 13.32 L41.799 13.32 L41.799 19.157 Z M20.901 21.158 L43.8 21.158 L43.8 11.32 L20.901 11.32 Z M2 7.836 L2 1.999 L6.967 1.999 L6.967 7.836 Z M0 9.836 L8.967 9.836 L8.967 0 L0 0 Z M12.451 7.836 L12.451 1.999 L17.417 1.999 L17.417 7.836 Z M10.45 9.836 L19.417 9.836 L19.417 0 L10.45 0 Z M22.9 7.836 L22.9 1.999 L41.799 1.999 L41.799 7.836 Z M20.901 9.836 L43.8 9.836 L43.8 0 L20.901 0 Z" fill="#C925D1" fill-rule="nonzero" stroke="none" /></svg>