<?xml version='1.0' encoding='utf-8'?>
<svg xmlns="http://www.w3.org/2000/svg" viewBox="0 0 44 44" width="44" height="44" role="img"><title>R5n Instance</title><desc>Converted from draw.io 22.1.2 mxgraph.aws4.r5n_instance; see provenance.json and source/stencils/LICENSE.</desc><path d="M44 11 L44 9 L39 9 L39 6 C39 5.447 38.553 5 38 5 L35 5 L35 0 L33 0 L33 5 L29 5 L29 0 L27 0 L27 5 L23 5 L23 0 L21 0 L21 5 L17 5 L17 0 L15 0 L15 5 L11 5 L11 0 L9 0 L9 5 L6 5 C5.447 5 5 5.447 5 6 L5 9 L0 9 L0 11 L5 11 L5 15 L0 15 L0 17 L5 17 L5 21 L0 21 L0 23 L5 23 L5 27 L0 27 L0 29 L5 29 L5 33 L0 33 L0 35 L5 35 L5 38 C5 38.553 5.447 39 6 39 L9 39 L9 44 L11 44 L11 39 L15 39 L15 44 L17 44 L17 39 L21 39 L21 44 L23 44 L23 39 L27 39 L27 44 L29 44 L29 39 L33 39 L33 44 L35 44 L35 39 L38 39 C38.553 39 39 38.553 39 38 L39 35 L44 35 L44 33 L39 33 L39 29 L44 29 L44 27 L39 27 L39 23 L44 23 L44 21 L39 21 L39 17 L44 17 L44 15 L39 15 L39 11 Z M7 37 L7 7 L37 7 L37 37 Z M12.662 23.034 L14.37 23.034 L16.638 26.884 L18.346 26.884 L15.84 22.739 C16.456 22.497 16.925 22.148 17.247 21.691 C17.568 21.232 17.729 20.687 17.729 20.052 C17.729 19.175 17.442 18.476 16.869 17.958 C16.295 17.441 15.531 17.181 14.58 17.181 L10.954 17.181 L10.954 26.884 L12.662 26.884 Z M12.662 18.497 L14.402 18.497 C15.463 18.497 15.994 19.034 15.994 20.109 C15.994 21.181 15.449 21.718 14.361 21.718 L12.662 21.718 Z M21.748 27.093 C20.814 27.093 19.919 26.907 19.06 26.534 L19.06 25.218 C20.08 25.564 20.962 25.736 21.704 25.736 C23.087 25.736 23.778 25.138 23.778 23.945 C23.778 23.364 23.604 22.943 23.256 22.677 C22.908 22.411 22.354 22.279 21.595 22.279 C21.028 22.279 20.319 22.325 19.466 22.417 L19.466 21.355 L19.732 17.181 L24.996 17.181 L24.996 18.511 L21.291 18.511 L21.132 21.101 C21.515 21.027 21.92 20.989 22.348 20.989 C23.317 20.989 24.081 21.251 24.638 21.775 C25.193 22.296 25.472 23.011 25.472 23.915 C25.472 24.886 25.136 25.659 24.464 26.234 C23.792 26.806 22.887 27.093 21.748 27.093 Z M28.328 26.884 L26.676 26.884 L26.676 19.757 L28.048 19.757 L28.216 20.542 C29.093 19.88 30.008 19.548 30.96 19.548 C31.641 19.548 32.159 19.728 32.514 20.087 C32.868 20.447 33.046 20.966 33.046 21.648 L33.046 26.884 L31.393 26.884 L31.393 22.165 C31.393 21.708 31.301 21.374 31.114 21.165 C30.927 20.954 30.629 20.849 30.218 20.849 C29.601 20.849 28.972 21.056 28.328 21.466 Z" fill="#ED7100" fill-rule="nonzero" stroke="none" /></svg>