<?xml version='1.0' encoding='utf-8'?>
<svg xmlns="http://www.w3.org/2000/svg" viewBox="0 0 50.453 55.95" width="50.453" height="55.95" role="img"><title>Thinkbox Frost</title><desc>Converted from draw.io 22.1.2 mxgraph.aws4.thinkbox_frost; see provenance.json and source/stencils/LICENSE.</desc><path d="M37.3 33.837 L33.03 31.388 L33.03 24.688 L37.381 22.159 L47.453 27.975 Z M36.34 47.224 L26.228 41.385 L26.228 36.472 L32.032 33.121 L36.34 35.592 Z M25.228 34.74 L19.425 31.39 L19.425 24.689 L25.228 21.339 L31.03 24.689 L31.03 31.39 Z M24.228 41.384 L14.113 47.224 L14.113 35.552 L18.42 33.119 L24.228 36.472 Z M13.118 33.817 L3 27.975 L13.073 22.159 L17.425 24.688 L17.425 31.383 Z M14.113 8.725 L24.228 14.565 L24.228 19.607 L18.427 22.956 L14.113 20.45 Z M26.228 14.565 L36.34 8.725 L36.34 20.451 L32.029 22.956 L26.228 19.607 Z M49.953 27.108 L39.374 21.001 L44.42 18.068 L48.953 20.686 L49.953 18.953 L46.414 16.91 L49.955 14.852 L48.951 13.123 L45.403 15.185 L45.403 11.071 L43.403 11.071 L43.403 16.347 L38.34 19.289 L38.34 6.993 C38.34 6.636 38.15 6.306 37.84 6.127 C37.531 5.948 37.149 5.948 36.84 6.127 L26.228 12.255 L26.227 6.409 L30.778 3.782 L29.778 2.05 L26.227 4.1 L26.227 0 L24.227 0 L24.227 4.1 L20.676 2.05 L19.676 3.782 L24.227 6.41 L24.228 12.255 L13.613 6.127 C13.305 5.948 12.922 5.948 12.613 6.127 C12.304 6.306 12.113 6.636 12.113 6.993 L12.113 19.288 L7.051 16.347 L7.051 11.071 L5.051 11.071 L5.051 15.185 L1.502 13.123 L0.498 14.852 L4.039 16.91 L0.5 18.953 L1.5 20.686 L6.033 18.068 L11.079 21.001 L0.5 27.108 C0.191 27.287 0 27.617 0 27.975 C0 28.332 0.191 28.662 0.5 28.841 L11.113 34.968 L6.051 37.891 L1.5 35.264 L0.5 36.996 L4.051 39.046 L0.5 41.096 L1.5 42.828 L5.051 40.778 L5.051 44.879 L7.051 44.879 L7.051 39.623 L12.113 36.7 L12.113 48.956 C12.113 49.314 12.304 49.644 12.613 49.822 C12.922 50.001 13.305 50.001 13.613 49.822 L24.228 43.694 L24.227 49.54 L19.676 52.167 L20.676 53.899 L24.227 51.849 L24.227 55.95 L26.227 55.95 L26.227 51.849 L29.778 53.899 L30.778 52.167 L26.227 49.54 L26.228 43.694 L36.84 49.822 C37.149 50.001 37.531 50.001 37.84 49.822 C38.15 49.644 38.34 49.314 38.34 48.956 L38.34 36.739 L43.403 39.644 L43.403 44.879 L45.403 44.879 L45.403 40.791 L48.955 42.829 L49.951 41.095 L46.391 39.052 L49.953 36.996 L48.953 35.264 L44.385 37.901 L39.306 34.988 L49.953 28.841 C50.263 28.662 50.453 28.332 50.453 27.975 C50.453 27.617 50.263 27.287 49.953 27.108 Z" fill="#ED7100" fill-rule="nonzero" stroke="none" /></svg>