<?xml version='1.0' encoding='utf-8'?>
<svg xmlns="http://www.w3.org/2000/svg" height="64" preserveAspectRatio="xMidYMid meet" viewBox="0 0 43.908 43.91" width="64"><path d="M32.251 23.974 C32.011 24.206 31.771 24.324 31.53 24.324 C31.378 24.324 31.255 24.259 31.165 24.132 C31.073 24.005 31.028 23.832 31.028 23.614 C31.028 23.359 31.085 23.164 31.197 23.03 C31.31 22.895 31.472 22.828 31.684 22.828 C31.901 22.828 32.091 22.853 32.251 22.905 Z M31.825 19.51 C31.469 19.51 31.119 19.55 30.778 19.63 C30.436 19.71 30.159 19.82 29.947 19.957 L29.947 20.952 C30.581 20.718 31.115 20.602 31.552 20.602 C31.821 20.602 32.006 20.669 32.103 20.804 C32.202 20.939 32.251 21.195 32.251 21.573 L32.251 22.075 C31.916 21.988 31.636 21.944 31.41 21.944 C30.865 21.944 30.432 22.102 30.111 22.418 C29.791 22.735 29.632 23.166 29.632 23.712 C29.632 24.229 29.763 24.634 30.024 24.929 C30.287 25.224 30.644 25.371 31.094 25.371 C31.334 25.371 31.571 25.311 31.803 25.191 C32.036 25.071 32.214 24.916 32.338 24.727 L32.47 25.229 L33.626 25.229 L33.626 21.322 C33.626 20.689 33.484 20.229 33.2 19.942 C32.916 19.655 32.458 19.51 31.825 19.51 Z M28.813 19.597 C28.93 19.597 29.045 19.609 29.162 19.63 L29.162 20.952 C28.958 20.914 28.766 20.897 28.583 20.897 C28.234 20.897 27.902 20.984 27.591 21.159 L27.591 25.229 L26.095 25.229 L26.095 19.652 L27.317 19.652 L27.481 20.372 C27.7 20.104 27.916 19.907 28.131 19.783 C28.346 19.66 28.573 19.597 28.813 19.597 Z M23.373 23.805 C23.253 24.092 23.058 24.236 22.789 24.236 C22.52 24.236 22.325 24.092 22.205 23.805 C22.084 23.518 22.024 23.065 22.024 22.446 C22.024 21.828 22.084 21.373 22.205 21.081 C22.325 20.79 22.52 20.645 22.789 20.645 C23.058 20.645 23.253 20.79 23.373 21.081 C23.493 21.373 23.553 21.828 23.553 22.446 C23.553 23.065 23.493 23.518 23.373 23.805 Z M22.789 19.51 C22.069 19.51 21.512 19.765 21.119 20.274 C20.727 20.784 20.529 21.507 20.529 22.446 C20.529 23.377 20.727 24.097 21.119 24.607 C21.512 25.117 22.069 25.371 22.789 25.371 C23.509 25.371 24.065 25.117 24.458 24.607 C24.852 24.097 25.048 23.377 25.048 22.446 C25.048 21.507 24.852 20.784 24.458 20.274 C24.065 19.765 23.509 19.51 22.789 19.51 Z M19.744 19.597 C19.86 19.597 19.977 19.609 20.093 19.63 L20.093 20.952 C19.89 20.914 19.697 20.897 19.515 20.897 C19.165 20.897 18.834 20.984 18.522 21.159 L18.522 25.229 L17.026 25.229 L17.026 19.652 L18.249 19.652 L18.413 20.372 C18.631 20.104 18.847 19.907 19.062 19.783 C19.275 19.66 19.504 19.597 19.744 19.597 Z M14.243 19.652 L15.739 19.652 L15.739 25.229 L14.517 25.229 L14.397 24.727 C13.836 25.157 13.297 25.371 12.781 25.371 C12.374 25.371 12.064 25.229 11.854 24.945 C11.643 24.661 11.537 24.251 11.537 23.712 L11.537 19.652 L13.032 19.652 L13.032 23.244 C13.032 23.599 13.072 23.854 13.152 24.007 C13.232 24.16 13.367 24.236 13.557 24.236 C13.774 24.236 14.003 24.152 14.243 23.985 Z M7.193 22.336 L7.859 19.204 L8.546 22.336 Z M7.073 17.666 L4.978 25.229 L6.582 25.229 L6.964 23.428 L8.775 23.428 L9.169 25.229 L10.85 25.229 L8.765 17.666 Z M38.598 8.575 C38.819 8.851 38.93 9.254 38.93 9.786 L38.93 13.878 L37.436 13.878 L37.436 10.211 C37.436 9.892 37.391 9.659 37.304 9.513 C37.217 9.368 37.066 9.294 36.856 9.294 C36.63 9.294 36.383 9.382 36.114 9.556 L36.114 13.878 L34.619 13.878 L34.619 8.301 L35.842 8.301 L35.962 8.804 C36.543 8.374 37.101 8.16 37.631 8.16 C38.054 8.16 38.375 8.298 38.598 8.575 Z M30.729 9.732 C30.848 9.441 31.043 9.294 31.312 9.294 C31.581 9.294 31.775 9.441 31.897 9.732 C32.016 10.023 32.075 10.478 32.075 11.095 C32.075 11.714 32.016 12.167 31.897 12.454 C31.775 12.742 31.581 12.885 31.312 12.885 C31.043 12.885 30.848 12.742 30.729 12.454 C30.608 12.167 30.548 11.714 30.548 11.095 C30.548 10.478 30.608 10.023 30.729 9.732 Z M31.312 14.021 C32.033 14.021 32.589 13.766 32.981 13.257 C33.375 12.747 33.571 12.028 33.571 11.095 C33.571 10.157 33.375 9.433 32.981 8.924 C32.589 8.414 32.033 8.16 31.312 8.16 C30.592 8.16 30.035 8.414 29.643 8.924 C29.25 9.433 29.053 10.157 29.053 11.095 C29.053 12.028 29.25 12.747 29.643 13.257 C30.035 13.766 30.592 14.021 31.312 14.021 Z M28.377 13.878 L24.503 13.878 L24.503 12.821 L26.761 9.448 L24.59 9.448 L24.59 8.301 L28.332 8.301 L28.332 9.361 L26.073 12.733 L28.377 12.733 Z M22.232 12.623 C21.992 12.856 21.752 12.973 21.512 12.973 C21.359 12.973 21.237 12.91 21.147 12.782 C21.056 12.655 21.01 12.482 21.01 12.264 C21.01 12.009 21.066 11.814 21.179 11.68 C21.291 11.545 21.453 11.478 21.665 11.478 C21.883 11.478 22.072 11.503 22.232 11.554 Z M21.392 10.593 C20.847 10.593 20.413 10.752 20.093 11.068 C19.772 11.384 19.613 11.816 19.613 12.362 C19.613 12.878 19.744 13.285 20.006 13.578 C20.269 13.873 20.625 14.021 21.075 14.021 C21.315 14.021 21.553 13.96 21.784 13.84 C22.018 13.721 22.195 13.566 22.319 13.376 L22.451 13.878 L23.607 13.878 L23.607 9.971 C23.607 9.338 23.466 8.878 23.182 8.591 C22.897 8.304 22.439 8.16 21.807 8.16 C21.45 8.16 21.101 8.2 20.76 8.28 C20.417 8.36 20.141 8.469 19.929 8.607 L19.929 9.601 C20.563 9.368 21.097 9.251 21.533 9.251 C21.803 9.251 21.987 9.319 22.084 9.453 C22.184 9.587 22.232 9.844 22.232 10.222 L22.232 10.725 C21.897 10.638 21.617 10.593 21.392 10.593 Z M17.059 10.201 C17.059 9.888 17.018 9.659 16.934 9.513 C16.85 9.368 16.71 9.294 16.514 9.294 C16.303 9.294 16.063 9.382 15.794 9.556 C15.801 9.593 15.804 9.633 15.804 9.677 L15.804 9.808 L15.804 13.878 L14.31 13.878 L14.31 10.201 C14.31 9.888 14.268 9.659 14.184 9.513 C14.101 9.368 13.96 9.294 13.764 9.294 C13.56 9.294 13.322 9.382 13.054 9.556 L13.054 13.878 L11.559 13.878 L11.559 8.301 L12.781 8.301 L12.901 8.804 C13.483 8.374 14.028 8.16 14.538 8.16 C15.056 8.16 15.419 8.381 15.63 8.826 C16.226 8.381 16.779 8.16 17.288 8.16 C17.696 8.16 18.009 8.3 18.227 8.579 C18.445 8.86 18.555 9.262 18.555 9.786 L18.555 13.878 L17.059 13.878 Z M7.193 10.987 L7.859 7.854 L8.546 10.987 Z M7.073 6.315 L4.978 13.878 L6.582 13.878 L6.964 12.078 L8.775 12.078 L9.169 13.878 L10.85 13.878 L8.765 6.315 Z M41.908 37.461 C41.908 39.914 39.913 41.91 37.461 41.91 L6.447 41.91 C3.995 41.91 2 39.914 2 37.461 L2 6.449 C2 3.995 3.995 2 6.447 2 L37.461 2 C39.913 2 41.908 3.995 41.908 6.449 Z M37.461 0 L6.447 0 C2.893 0 0 2.893 0 6.449 L0 37.461 C0 41.017 2.893 43.91 6.447 43.91 L37.461 43.91 C41.016 43.91 43.908 41.017 43.908 37.461 L43.908 6.449 C43.908 2.893 41.016 0 37.461 0 Z" fill="#C925D1" fill-rule="nonzero" stroke="none" /></svg>