<?xml version='1.0' encoding='utf-8'?>
<svg xmlns="http://www.w3.org/2000/svg" fill="none" height="64" preserveAspectRatio="xMidYMid meet" viewBox="0 0 72 72" width="64"><defs><clipPath id="i2bfa09637a99-n2"><rect fill="#fff" fill-opacity="0" height="72" width="72" /></clipPath></defs><g clip-path="url(#i2bfa09637a99-n2)"><path d="m16 0h40c8.8 0 16 7.19 16 16v40c0 8.8-7.2 16-16 16h-40c-8.8 0-16-7.2-16-16v-40c0-8.81 7.2-16 16-16z" fill="#7DCC29" fill-rule="evenodd" /><path d="m21.06 43.61c2.4 1.4 3.3 4.5 1.9 7-0.2 0.3-0.4 0.6-0.6 0.8 1.2 1.2 2.6 2.3 4.1 3.2 6.6 3.8 14.8 3.4 20.9-1 0.7-0.5 1.6-0.3 2.1 0.4s0.3 1.6-0.4 2.1c-7 5-16.5 5.6-24.1 1.1-2-1.1-3.7-2.6-5.3-4.2-1.2 0.3-2.6 0.1-3.8-0.5-2.4-1.4-3.3-4.5-1.9-7s4.6-3.3 7.1-1.9zm24.6-27.3c7.9 3.6 13 11.5 13 20.3 0 2.3-0.3 4.5-1 6.7 0.9 0.9 1.4 2.2 1.4 3.5 0 2.8-2.3 5.1-5.1 5.1s-5.1-2.3-5.1-5.1 2.3-5.1 5.1-5.1c0.3 0 0.7 0 1 0.1 0.5-1.7 0.7-3.4 0.7-5.2 0-7.6-4.5-14.5-11.3-17.6-0.8-0.3-1.1-1.2-0.7-2s1.2-1 2-0.7zm-29 30.7c-0.6 1-0.2 2.3 0.8 2.9s2.3 0.2 2.9-0.8 0.2-2.3-0.8-2.9-2.3-0.2-2.9 0.8zm37.3-2.3c-1.2 0-2.1 0.9-2.1 2.1s0.9 2.1 2.1 2.1 2.1-0.9 2.1-2.1-0.9-2.1-2.1-2.1zm-9.5-0.1c0.5 0 0.9 0.4 0.9 0.9s-0.4 0.9-0.9 0.9h-18.5c-0.5 0-0.9-0.4-0.9-0.9s0.4-0.9 0.9-0.9h18.5zm-0.1-3.9c0.5 0 0.9 0.4 0.9 0.9s-0.4 0.9-0.9 0.9h-18.5c-0.5 0-0.9-0.4-0.9-0.9s0.4-0.9 0.9-0.9h18.5zm-5.2-26.3c1.4 2.4 0.6 5.6-1.9 7s-5.6 0.6-7-1.9c-0.2-0.3-0.3-0.6-0.4-0.9-1.7 0.4-3.3 1.1-4.8 2-6.7 3.7-10.3 11-9.6 18.5 0.1 0.8-0.5 1.6-1.3 1.6-0.8 0.1-1.6-0.5-1.6-1.3-0.8-8.6 3.4-17 11.1-21.4 2-1.1 4.1-2 6.3-2.5 0.4-1.2 1.2-2.3 2.3-3 2.3-1.4 5.4-0.6 6.9 1.9zm-4.8 13.6c0.6 0 1.2 0.6 1.2 1.2v0.7c0 0.5-0.4 0.9-0.9 0.9s-0.9-0.4-0.9-0.9h-2.1v6.8h1.1c0.5 0 0.9 0.3 0.9 0.8v0.1c0 0.5-0.4 0.9-0.9 0.9h-4.8c-0.5 0-0.9-0.4-0.9-0.9s0.4-0.9 0.9-0.9h0.9v-6.8h-1.9c0 0.5-0.3 0.9-0.8 0.9h-0.1c-0.5 0-0.9-0.4-0.9-0.9v-0.7c0-0.6 0.6-1.2 1.2-1.2h8zm10 8.7c0.5 0 0.9 0.4 0.9 0.9s-0.5 0.9-0.9 0.9h-6.9c-0.5 0-0.9-0.4-0.9-0.9s0.4-0.9 0.9-0.9h6.9zm0-3.9c0.5 0 0.9 0.4 0.9 0.9s-0.5 0.9-0.9 0.9h-6.9c-0.5 0-0.9-0.4-0.9-0.9s0.4-0.9 0.9-0.9h6.9zm-10.7-17.7c-1 0.6-1.3 1.9-0.8 2.9 0.6 1 1.9 1.3 2.9 0.8s1.3-1.9 0.8-2.9-1.9-1.4-2.9-0.8z" fill="#fff" /></g></svg>