<?xml version='1.0' encoding='utf-8'?>
<svg xmlns="http://www.w3.org/2000/svg" height="64" preserveAspectRatio="xMidYMid meet" viewBox="0 0 32 32" width="64"><g fill="none" fill-rule="evenodd" id="i18ef33799672-n1" stroke="none" stroke-width="1"><rect fill="#0052D9" height="32" id="i18ef33799672-n2" opacity="0" width="32" x="0" y="0" /><g fill="#0052D9" fill-rule="nonzero" id="i18ef33799672-n3" transform="translate(2.000000, 0.000000)"><polygon id="i18ef33799672-n4" points="8.1 10 20.1 10 20.1 12 8.1 12" /><rect height="2" id="i18ef33799672-n5" width="12" x="8" y="14" /><rect height="2" id="i18ef33799672-n6" width="4" x="8" y="19" /><g id="i18ef33799672-n7" transform="translate(13.000000, 17.000000)"><polygon id="i18ef33799672-n8" points="2.3 5.8 0.1 2.8 1.8 1.5 2.8 3 5.7 1 5.7 1 6.4 0.5 9 3.9 7.3 5 5.9 3.2" /></g><polygon id="i18ef33799672-n9" points="26 22.9 14 29.7 2 22.9 2 9.2 14 2.3 26 9.2 26 9.2 28 8 14 0 0 8 0 24 14 32 28 24 28 12 26 13.2" /></g></g></svg>