<?xml version='1.0' encoding='utf-8'?>
<svg xmlns="http://www.w3.org/2000/svg" height="64" preserveAspectRatio="xMidYMid meet" viewBox="0 0 57.082 37.245" width="64"><path d="M28.718 24.699 L28.938 22.691 C27.125 22.496 25.255 24.364 24.441 27.143 C23.769 29.436 24.033 31.657 25.111 32.798 L26.57 31.408 C26.096 30.906 25.864 29.44 26.37 27.712 C26.946 25.747 28.126 24.627 28.718 24.699 Z M9.038 24.918 L9.245 22.909 C7.357 22.712 5.395 24.58 4.531 27.344 C3.809 29.656 4.091 31.893 5.247 33.041 L6.661 31.604 C6.16 31.107 5.917 29.657 6.45 27.949 C7.094 25.892 8.367 24.841 9.038 24.918 Z M32.136 15.142 L32.951 13.294 C32.854 13.253 23.312 9.143 17.458 19.514 L19.208 20.511 C24.144 11.764 31.811 15.001 32.136 15.142 Z M53.048 25.79 L52.42 27.537 L51.364 30.119 C51.281 30.318 51.139 30.479 50.964 30.588 L50.988 31.086 C51.009 32.278 50.668 33.25 50.005 33.928 C49.565 34.377 48.997 34.668 48.331 34.834 L48.223 35.08 C48.418 35.081 48.62 35.08 48.827 35.079 C51.389 35.063 53.042 34.328 53.738 32.894 C54.759 30.794 54.459 28.15 53.048 25.79 Z M55.546 33.781 C54.816 35.28 53.063 37.072 48.841 37.099 C48.676 37.1 48.514 37.1 48.357 37.1 C47.417 37.1 46.666 37.084 46.666 37.084 C46.33 37.077 46.019 36.901 45.838 36.616 C45.658 36.331 45.631 35.975 45.767 35.666 L46.063 34.994 L34.049 34.994 C32.805 34.994 31.697 34.532 31.004 33.726 C30.725 33.399 30.52 33.026 30.396 32.619 C29.967 33.424 29.491 34.125 28.971 34.716 C28.112 35.696 26.328 37.133 24.502 37.133 C24.194 37.133 23.886 37.092 23.581 37.002 C20.555 36.107 19.465 31.356 21.049 25.95 C22.64 20.521 26.242 16.962 29.253 17.855 C29.565 17.948 29.864 18.086 30.142 18.267 L29.052 19.964 C28.934 19.888 28.812 19.831 28.685 19.793 C27.068 19.314 24.317 21.957 22.978 26.521 C21.657 31.033 22.516 34.582 24.149 35.064 C25.061 35.332 26.551 34.42 27.463 33.381 C28.436 32.272 29.242 30.647 29.856 28.552 C30.46 26.487 30.649 24.415 30.386 22.721 C30.303 22.182 30.661 21.674 31.195 21.573 C31.724 21.472 32.246 21.814 32.362 22.347 C32.864 24.628 32.838 27.676 32.284 31.405 C32.223 31.811 32.305 32.147 32.528 32.407 C32.833 32.762 33.401 32.974 34.049 32.974 L47.082 32.974 C47.769 32.974 48.27 32.819 48.571 32.512 C48.851 32.225 48.989 31.767 48.978 31.152 L48.958 30.744 L47.578 30.743 C47.266 30.743 46.973 30.599 46.783 30.351 C46.592 30.104 46.526 29.782 46.605 29.479 L46.777 28.816 C46.798 28.735 46.829 28.658 46.868 28.585 L41.991 28.501 C41.344 28.501 40.747 28.836 40.406 29.384 L40.241 29.994 C40.123 30.434 39.724 30.739 39.271 30.739 L35.286 30.738 C34.79 30.836 34.304 30.541 34.14 30.063 C33.986 29.618 33.833 28.947 33.636 28.098 C33.44 27.255 33.198 26.204 32.898 25.137 L34.833 24.588 C35.147 25.701 35.395 26.777 35.595 27.642 C35.687 28.039 35.772 28.407 35.85 28.718 L38.502 28.719 C38.523 28.644 38.551 28.573 38.588 28.505 C39.27 27.257 40.574 26.481 41.991 26.481 L46.819 26.481 C47.557 26.481 48.223 26.863 48.599 27.5 C48.822 27.879 48.917 28.305 48.882 28.724 L49.76 28.724 L50.545 26.809 L51.271 24.785 C51.84 23.195 52.238 21.533 52.453 19.846 L53.328 12.036 C53.586 10.013 53.121 8.142 52.019 6.754 C50.884 5.323 49.237 4.481 47.503 4.443 C47.439 4.442 47.378 4.435 47.316 4.421 L43.891 4.363 C43.709 4.351 41.058 4.166 39.042 6.774 C38.774 7.119 38.316 7.25 37.91 7.106 C37.5 6.96 37.231 6.567 37.242 6.13 C37.261 5.307 37.936 3.789 39.425 2.689 C24.968 0.745 19.102 5.852 16.843 9.272 L14.947 12.647 C14.917 12.7 14.882 12.751 14.843 12.798 C13.811 14.033 11.882 15.48 8.607 15.39 C6.038 15.553 4.185 16.873 3.19 19.309 C2.95 19.973 2.711 20.764 2.692 20.965 C2.682 21.064 2.658 21.175 2.62 21.276 C2.554 21.621 2.507 21.954 2.472 22.267 C2.747 22.035 3.015 21.813 3.274 21.6 C3.656 21.285 4.21 21.297 4.581 21.628 C4.95 21.96 5.024 22.51 4.757 22.928 C4.078 23.988 3.504 25.236 3.096 26.538 C2.858 27.302 2.677 28.083 2.56 28.856 L2.416 30.41 C2.177 32.992 2.722 34.563 4.036 35.08 C5.301 35.576 6.775 34.681 7.654 33.763 C8.88 32.478 9.917 30.621 10.569 28.535 C11.5 25.553 11.48 22.545 10.518 20.872 L12.26 19.862 C13.509 22.034 13.597 25.589 12.488 29.139 C12.069 30.477 11.503 31.733 10.834 32.849 L18.286 32.849 L18.286 34.869 L9.365 34.869 C9.278 34.967 9.192 35.069 9.104 35.162 C8.047 36.266 6.474 37.245 4.81 37.245 C4.311 37.245 3.806 37.158 3.303 36.96 C1.757 36.352 0 34.69 0.413 30.227 C0.417 30.176 0.445 29.878 0.566 28.609 C0.705 27.678 0.908 26.796 1.178 25.933 C1.222 25.79 1.268 25.649 1.316 25.509 C1.217 25.499 1.119 25.477 1.025 25.438 C0.675 25.294 0.434 24.966 0.403 24.588 C0.397 24.517 0.258 22.81 0.672 20.754 C0.682 20.704 0.696 20.657 0.712 20.609 C0.817 19.994 1.158 19.011 1.315 18.58 C2.624 15.375 5.129 13.587 8.575 13.372 C9.859 13.409 10.952 13.178 11.856 12.687 L1.214 12.687 L1.214 10.667 L13.751 10.667 L15.13 8.217 C15.253 8.031 15.389 7.839 15.531 7.645 L10.275 7.645 L10.275 5.625 L17.3 5.625 C18.428 4.546 19.882 3.479 21.743 2.583 L6.242 2.583 L6.242 0.564 L28.424 0.564 L28.424 0.599 C32.424 0 37.471 0.098 43.837 1.39 C44.303 1.485 44.634 1.891 44.644 2.357 L47.474 2.404 C47.542 2.405 47.608 2.413 47.675 2.427 C49.96 2.517 52.111 3.63 53.592 5.494 C55.036 7.315 55.651 9.723 55.325 12.277 L54.45 20.087 C54.309 21.198 54.087 22.292 53.805 23.365 C56.38 26.59 57.082 30.621 55.546 33.781 Z M44.984 19.753 C46.078 19.727 46.931 18.954 47.062 17.914 L47.253 16.412 C46.643 17.205 45.697 17.726 44.623 17.726 C43.999 17.726 43.423 17.542 42.923 17.242 L42.905 17.381 C42.828 17.991 43.019 18.601 43.428 19.057 C43.824 19.499 44.391 19.753 44.984 19.753 Z M43.3 14.377 C43.3 15.109 43.894 15.706 44.623 15.706 C45.353 15.706 45.947 15.109 45.947 14.377 C45.947 13.644 45.353 13.048 44.623 13.048 C43.894 13.048 43.3 13.644 43.3 14.377 Z M43.735 10.846 L43.692 11.177 C43.99 11.089 44.298 11.028 44.623 11.028 C45.991 11.028 47.167 11.86 47.68 13.046 L47.892 11.378 C47.97 10.769 47.778 10.158 47.37 9.702 C46.971 9.258 46.408 9.007 45.816 9.007 C45.798 9.007 45.781 9.007 45.764 9.008 C44.719 9.033 43.865 9.806 43.735 10.846 Z M45.079 21.772 C43.821 21.772 42.711 21.275 41.935 20.41 C41.132 19.517 40.758 18.321 40.91 17.126 L41.739 10.59 C41.998 8.553 43.669 7.038 45.714 6.989 C46.904 6.945 48.06 7.455 48.863 8.349 C49.665 9.242 50.039 10.439 49.888 11.633 L49.888 11.634 L49.058 18.169 C48.799 20.206 47.128 21.721 45.083 21.772 Z" fill="#01A88D" fill-rule="nonzero" stroke="none" /></svg>