<?xml version="1.0" standalone="no"?><!DOCTYPE svg PUBLIC "-//W3C//DTD SVG 1.1//EN" "http://www.w3.org/Graphics/SVG/1.1/DTD/svg11.dtd"><svg t="1768877187548" class="icon" viewBox="0 0 1024 1024" version="1.1" xmlns="http://www.w3.org/2000/svg" p-id="8358" xmlns:xlink="http://www.w3.org/1999/xlink" width="200" height="200"><path d="M891.733 66.133c36.267 0 66.134 29.867 66.134 66.134 0 36.266-29.867 66.133-66.134 66.133S825.6 168.533 825.6 132.267C823.467 96 853.333 66.133 891.733 66.133M279.467 439.467H34.133c-8.533 0-17.066 4.266-23.466 10.666C4.267 456.533 0 465.067 0 473.6c0 19.2 14.933 32 34.133 32h245.334c81.066 0 149.333-64 153.6-145.067H576c14.933 36.267 51.2 64 93.867 64 55.466 0 100.266-44.8 100.266-98.133 0-55.467-44.8-98.133-100.266-98.133-44.8 0-81.067 27.733-93.867 68.266H435.2V249.6c0-46.933 38.4-85.333 85.333-85.333h243.2c14.934 57.6 66.134 98.133 128 98.133 72.534 0 132.267-59.733 132.267-132.267C1024 59.733 964.267 0 891.733 0c-61.866 0-113.066 42.667-128 98.133H518.4c-85.333 0-153.6 68.267-153.6 151.467v46.933H34.133c-8.533 0-17.066 4.267-23.466 10.667S0 320 0 328.533c0 19.2 14.933 32 34.133 32h332.8c-4.266 44.8-42.666 78.934-87.466 78.934m-245.334 224H454.4c14.933 36.266 51.2 64 93.867 64 55.466 0 100.266-44.8 100.266-98.134s-44.8-98.133-100.266-98.133c-44.8 0-81.067 27.733-93.867 68.267H34.133c-8.533 0-17.066 4.266-23.466 10.666S0 620.8 0 629.333c0 19.2 14.933 34.134 34.133 34.134m857.6 294.4c-36.266 0-66.133-29.867-66.133-66.134 0-36.266 29.867-66.133 66.133-66.133s66.134 29.867 66.134 66.133c0 36.267-29.867 66.134-66.134 66.134m0-196.267c-61.866 0-113.066 42.667-128 98.133H691.2c-44.8 0-89.6-10.666-130.133-29.866L448 776.533c-49.067-23.466-104.533-36.266-157.867-36.266h-256c-8.533 0-17.066 4.266-23.466 10.666C4.267 757.333 0 765.867 0 774.4c0 19.2 14.933 32 34.133 32h256c44.8 0 89.6 10.667 130.134 29.867L531.2 889.6c49.067 23.467 104.533 36.267 157.867 36.267H761.6c14.933 57.6 66.133 98.133 128 98.133 72.533 0 132.267-59.733 132.267-132.267C1024 819.2 964.267 761.6 891.733 761.6" fill="#FF6A00" p-id="8359"></path></svg>