<?xml version="1.0" standalone="no"?><!DOCTYPE svg PUBLIC "-//W3C//DTD SVG 1.1//EN" "http://www.w3.org/Graphics/SVG/1.1/DTD/svg11.dtd"><svg t="1775026417476" class="icon" viewBox="0 0 1024 1024" version="1.1" xmlns="http://www.w3.org/2000/svg" p-id="7843" xmlns:xlink="http://www.w3.org/1999/xlink" width="200" height="200"><path d="M698.8 330c47.6 47.6 87.2 98.4 118 149.6l22.4-34c-30.8-48.8-68.8-96.8-114-142C566.8 145.2 371.6 72 240 109.6l30.4 30.4c117.2-22 287.2 49.2 428.4 190z m60.8-192.8l30.8-30.8c-67.2-19.2-150.4-10-237.2 24.4l40 24.4c60.8-20.4 118-27.2 166.4-18z m-524 100.4c29.2-29.2 29.2-76.8 0-106-29.2-29.2-76.8-29.2-106 0-29.2 29.2-29.2 76.8 0 106 29.2 29.2 76.8 29.2 106 0zM151.2 155.6a37.904 37.904 0 1 1 53.6 53.608A37.904 37.904 0 0 1 151.2 155.6z m426 689.2c50.8-31.2 101.2-70.8 148-117.6 158.4-158.4 231.6-353.6 194-485.2l-30.4 30.4c22 117.2-48.8 287.2-190 428.4-49.2 49.2-102 90-154.8 121.2l33.2 22.8z m214-607.2c29.2 29.2 76.8 29.2 106 0 29.2-29.2 29.2-76.8 0-106-29.2-29.2-76.8-29.2-106 0-29.2 29.2-29.2 76.8 0 106z m30.8-82a37.904 37.904 0 1 1 53.6 53.608A37.904 37.904 0 0 1 822 155.6z m48 435.6c21.2 60.8 28 118.8 18.8 167.2l30.4 30.4c19.2-66.4 9.6-149.2-24.8-235.6l-24.4 38zM270.4 890.8l-30.4 30.4c65.6 18.8 147.2 10 232.4-23.2l-36.4-25.2c-60.4 20.4-117.2 27.2-165.6 18zM328 700.8c-48.4-48.4-88.4-100-119.2-151.6l-21.2 36.4c30.8 48.8 68.8 96.8 114 141.6 158.4 158.4 353.6 231.6 485.2 194l-30.4-30.4c-117.2 22-287.2-48.8-428.4-190z m-172.8-266c-20-59.2-26-115.2-17.2-162.4l-30.4-30.4c-18.8 66-10 148.4 24 233.6l23.6-40.8z m636 358.4c-29.2 29.2-29.2 76.8 0 106 29.2 29.2 76.8 29.2 106 0 29.2-29.2 29.2-76.8 0-106-29.2-29.2-76.4-29.2-106 0z m84.4 86.8a37.904 37.904 0 1 1-53.6-53.608A37.904 37.904 0 0 1 875.6 880z m-640-86.8c-29.2-29.2-76.8-29.2-106 0-29.2 29.2-29.2 76.8 0 106 29.2 29.2 76.8 29.2 106 0 29.2-29.2 29.2-76.4 0-106zM204.8 880a37.904 37.904 0 1 1-53.6-53.608A37.904 37.904 0 0 1 204.8 880z m-66.8-121.6C116 641.2 187.2 471.2 328 330c47.2-47.2 97.6-86.4 148-117.2l-35.2-21.6c-47.6 30.4-94.8 68-139.2 112-158.4 158.4-231.6 353.6-194 485.2l30.4-30z m320.8-94.4c9.2 0 16.4-7.2 16.4-16.4V384.8c0-6.8-4-12.8-10.4-15.2-6-2.4-13.2-1.2-18 3.6l-93.2 95.6c-6.4 6.4-6.4 16.8 0.4 23.2 6.4 6.4 16.8 6 23.2-0.4l65.2-66.8v222.4c0 9.6 7.2 16.8 16.4 16.8zM568 371.6c-9.2 0-16.4 7.2-16.4 16.4v262.8c0 6.8 4 12.8 10 15.2 2 0.8 4 1.2 6 1.2 4.4 0 8.4-1.6 11.6-4.8l93.2-95.6c6.4-6.4 6.4-16.8-0.4-23.2-6.4-6.4-16.8-6-23.2 0.4l-65.2 66.8V387.6c0.8-8.8-6.4-16-15.6-16z m0 0" fill="#3F51B5" p-id="7844"></path><path d="M712.8 934.8c-128 0-284.8-76-414-204.8-44.4-44.4-82.8-92-114.4-142.4l-1.2-2 25.6-44.4 3.6 6c32 53.2 71.6 104 118.8 150.8 135.2 135.2 306 211.2 424.8 188.8l2-0.4 36.8 36.8-6.4 2c-24 6.4-49.2 9.6-75.6 9.6zM192.4 585.2c31.2 49.2 68.8 96 112 139.2 151.2 151.2 340.8 228.8 474.4 194.8l-24-24c-58.8 10.4-129.6-1.6-205.6-34.4-78-34-155.6-88.4-224.4-157.2-45.6-45.6-84.8-95.2-116.4-146.8l-16 28.4z m121.6 349.6c-26.8 0-51.6-3.2-75.2-10l-6.4-2 36.8-36.8 2 0.4c46.8 8.8 103.2 2.4 163.6-18.4l2-0.8 44 30.8-6.8 2.8c-56.8 22.8-110.8 34-160 34z m-66.4-15.6c61.6 15.6 136 8 216-22.4l-28.4-20c-60 20.4-116.4 26.8-163.6 18.4l-24 24z m-65.2 6c-21.2 0-40.8-8.4-55.6-23.2-14.8-14.8-23.2-34.8-23.2-55.6 0-21.2 8.4-40.8 23.2-55.6 14.8-14.8 34.8-23.2 55.6-23.2 21.2 0 40.8 8.4 55.6 23.2 14.8 14.8 23.2 34.8 23.2 55.6 0 21.2-8.4 40.8-23.2 55.6-14.4 14.8-34.4 23.2-55.6 23.2z m0-149.6c-18.8 0-36.8 7.2-50 20.8-13.2 13.2-20.8 31.2-20.8 50s7.2 36.8 20.8 50c13.2 13.2 31.2 20.8 50 20.8s36.8-7.2 50-20.8c13.2-13.2 20.8-31.2 20.8-50s-7.2-36.8-20.8-50c-13.2-13.6-30.8-20.8-50-20.8z m662 149.6c-20 0-40.4-7.6-55.6-23.2-30.8-30.8-30.8-80.8 0-111.6 30.8-30.8 80.8-30.8 111.6 0 30.8 30.8 30.8 80.8 0 111.6-15.6 15.6-36 23.2-56 23.2zM794.4 796c-27.6 27.6-27.6 72.4 0 100.4 27.6 27.6 72.4 27.6 100.4 0 27.6-27.6 27.6-72.4 0-100.4-28-27.6-72.8-27.6-100.4 0zM178 895.2c-11.2 0-21.6-4.4-29.6-12.4s-12.4-18.4-12.4-29.6c0-11.2 4.4-21.6 12.4-29.6s18.4-12.4 29.6-12.4c11.2 0 21.6 4.4 29.6 12.4s12.4 18.4 12.4 29.6c0 11.2-4.4 21.6-12.4 29.6s-18.4 12.4-29.6 12.4z m0-76c-9.2 0-17.6 3.6-24 10-6.4 6.4-10 14.8-10 24s3.6 17.6 10 24c6.4 6.4 14.8 10 24 10s17.6-3.6 24-10c6.4-6.4 10-14.8 10-24s-3.6-17.6-10-24c-6.4-6.4-14.8-10-24-10z m670.8 76c-11.2 0-21.6-4.4-29.6-12.4s-12.4-18.4-12.4-29.6c0-11.2 4.4-21.6 12.4-29.6s18.4-12.4 29.6-12.4c11.2 0 21.6 4.4 29.6 12.4s12.4 18.4 12.4 29.6c0 11.2-4.4 21.6-12.4 29.6-7.6 8-18.4 12.4-29.6 12.4z m0-76c-9.2 0-17.6 3.6-24 10-6.4 6.4-10 14.8-10 24s3.6 17.6 10 24c6.4 6.4 14.8 10 24 10s17.6-3.6 24-10c6.4-6.4 10-14.8 10-24s-3.6-17.6-10-24c-6.4-6.4-14.8-10-24-10z m-271.6 30.4l-40.4-28.4 5.2-3.2c54.4-32 106-72.4 154-120.4 135.2-135.2 211.2-306 188.8-424.8l-0.4-2 36.8-36.8 2 6.4c39.2 136.8-39.2 333.2-194.8 489.2-46 46-96 86-148.8 118.4l-2.4 1.6z m-25.6-27.6l26 18c51.2-31.6 100-70.8 145.2-115.6 151.2-151.2 228.8-340.8 194.8-474.4l-24 24c21.6 121.2-55.2 293.2-191.6 429.6-47.2 46.8-97.6 86.4-150.4 118.4z m369.6-25.6l-36.8-36.8 0.4-2c8.8-47.2 2.4-104.4-18.8-165.2l-0.8-2 30-45.6 2.8 7.2c35.6 88.8 44 171.2 24.8 238l-1.6 6.4z m-28-39.2l24 24c15.6-61.6 7.2-138.8-23.6-219.2l-19.2 29.6c20.8 60.4 27.2 117.6 18.8 165.6z m-787.6 39.2l-2-6.4c-39.2-136.8 39.2-333.2 195.2-489.2 43.6-43.6 90.4-81.2 140-112.8l2-1.2 43.2 26.4-5.6 3.6c-52 31.2-101.6 70.4-147.6 116-135.2 135.2-211.2 306-188.8 424.8l0.4 2-36.8 36.8z m335.2-600c-48 30.8-94 68-136.4 110.4-151.2 151.2-228.8 340.8-194.8 474.4l24-24c-10.4-58.8 1.6-129.6 34.4-205.6 34-78 88.4-155.6 157.2-224.4 44.8-44.8 92.8-83.2 143.2-114.4l-27.6-16.4zM568 670.8c-2.8 0-5.2-0.4-7.6-1.6-7.6-3.2-12.8-10.4-12.8-18.8V388c0-11.2 9.2-20.4 20.4-20.4s20.4 9.2 20.4 20.4v212.8l58.4-60c4-4 8.8-6 14.4-6s10.4 2 14.4 6c4 3.6 6 8.8 6 14.4s-2 10.4-6 14.4l-93.2 95.6c-3.6 3.6-8.8 5.6-14.4 5.6z m0-295.2c-6.8 0-12.4 5.6-12.4 12.4v262.8c0 5.2 3.2 9.6 7.6 11.6 4.8 2 10 0.8 13.6-2.8l93.2-95.6c2.4-2.4 3.6-5.6 3.6-8.8 0-3.2-1.2-6.4-3.6-8.8-2.4-2.4-5.6-3.6-8.8-3.6-3.2 0-6.4 1.2-8.8 3.6l-72 74V388c0-7.2-5.6-12.4-12.4-12.4zM458.8 668c-11.2 0-20.4-9.2-20.4-20.4v-212.8l-58.4 60c-4 4-8.8 6-14.4 6s-10.4-2-14.4-6c-4-3.6-6-8.8-6-14.4s2-10.4 6-14.4l93.2-95.6c5.6-6 14.8-7.6 22.4-4.8 7.6 3.2 12.8 10.4 12.8 18.8v262.8c-0.4 11.6-9.6 20.8-20.8 20.8z m-12.4-252.8v232.4c0 6.8 5.6 12.4 12.4 12.4s12.4-5.6 12.4-12.4V384.8c0-5.2-3.2-9.6-7.6-11.6-4.8-2-10-0.8-13.6 2.8l-93.2 96c-2.4 2.4-3.6 5.6-3.6 8.8 0 3.2 1.2 6.4 3.6 8.8 2.4 2.4 5.6 3.6 8.8 3.6 3.2 0 6.4-1.2 8.8-3.6l72-74.4z m370.4 72l-3.2-5.6c-31.6-52.4-71.2-102.4-117.6-148.8C560.4 197.6 390 121.6 271.2 144l-2 0.4-36.8-36.8 6.4-2C375.6 66.4 572 144.8 728 300.4c44.4 44.4 82.8 92.4 114.4 142.4l1.2 2-26.8 42.4zM315.2 132c48.8 0 104 12.8 162 38 78 34 155.6 88.4 224.4 157.2 45.2 45.2 84 94 115.2 144.8l17.6-26.8c-31.2-49.2-68.8-96-112-139.2-151.2-150.8-340.8-228.4-474.8-194.4l24 24c14-2.4 28.4-3.6 43.6-3.6z m-184 352.8l-3.2-7.6c-34.8-88-43.2-169.6-24-236.4l2-6.4 36.8 36.8-0.4 2c-8.8 46-2.8 101.2 17.2 160.4l0.4 1.6-28.8 49.6z m-21.6-235.2c-15.6 60.8-7.6 137.2 22.8 216.8l18.4-32c-19.6-58.8-25.6-114-17.2-160.4l-24-24.4z m734.8 14c-21.2 0-40.8-8.4-55.6-23.2-14.8-14.8-23.2-34.8-23.2-55.6 0-21.2 8.4-40.8 23.2-55.6 14.8-14.8 34.8-23.2 55.6-23.2 21.2 0 40.8 8.4 55.6 23.2 14.8 14.8 23.2 34.8 23.2 55.6 0 21.2-8.4 40.8-23.2 55.6-14.8 14.8-34.8 23.2-55.6 23.2z m0-150c-18.8 0-36.8 7.2-50 20.8-13.2 13.2-20.8 31.2-20.8 50s7.2 36.8 20.8 50c13.2 13.2 31.2 20.8 50 20.8s36.8-7.2 50-20.8c13.2-13.2 20.8-31.2 20.8-50s-7.2-36.8-20.8-50c-13.2-13.2-31.2-20.8-50-20.8zM182.4 263.6c-21.2 0-40.8-8.4-55.6-23.2-14.8-14.8-23.2-34.8-23.2-55.6 0-21.2 8.4-40.8 23.2-55.6 14.8-14.8 34.8-23.2 55.6-23.2 21.2 0 40.8 8.4 55.6 23.2 14.8 14.8 23.2 34.8 23.2 55.6 0 21.2-8.4 40.8-23.2 55.6-14.4 14.8-34.4 23.2-55.6 23.2z m0-150c-18.8 0-36.8 7.2-50 20.8-13.2 13.2-20.8 31.2-20.8 50s7.2 36.8 20.8 50c13.2 13.2 31.2 20.8 50 20.8s36.8-7.2 50-20.8c13.2-13.2 20.8-31.2 20.8-50s-7.2-36.8-20.8-50c-13.2-13.2-30.8-20.8-50-20.8z m666.4 110.8c-11.2 0-21.6-4.4-29.6-12.4s-12.4-18.4-12.4-29.6c0-11.2 4.4-21.6 12.4-29.6 16.4-16.4 42.8-16.4 59.2 0 8 8 12.4 18.4 12.4 29.6 0 11.2-4.4 21.6-12.4 29.6-7.6 8-18.4 12.4-29.6 12.4z m-24-66c-6.4 6.4-10 14.8-10 24s3.6 17.6 10 24c6.4 6.4 14.8 10 24 10s17.6-3.6 24-10c6.4-6.4 10-14.8 10-24s-3.6-17.6-10-24c-13.2-13.2-34.8-13.2-48 0zM178 224.4c-11.2 0-21.6-4.4-29.6-12.4S136 193.6 136 182.4c0-11.2 4.4-21.6 12.4-29.6 16.4-16.4 42.8-16.4 59.2 0 8 8 12.4 18.4 12.4 29.6 0 11.2-4.4 21.6-12.4 29.6s-18.4 12.4-29.6 12.4z m0-76c-8.8 0-17.2 3.2-24 10-6.4 6.4-10 14.8-10 24s3.6 17.6 10 24c6.4 6.4 14.8 10 24 10s17.6-3.6 24-10c6.4-6.4 10-14.8 10-24s-3.6-17.6-10-24c-6.4-6.8-15.2-10-24-10zM592.8 160l-48.4-29.6 7.6-2.8c89.6-35.6 172.4-44 240-24.8l6.4 2-37.2 37.2-2-0.4c-47.2-8.8-104-2.8-164.4 18l-2 0.4z m-30.4-28.4l31.6 19.2c60.4-20.4 117.2-26.4 164.8-18l24.4-24.4c-62.4-15.6-140-7.2-220.8 23.2z" fill="#3F51B5" p-id="7845"></path></svg>